<svg xmlns="http://www.w3.org/2000/svg" viewBox="0 0 64 64" fill="none">
  <circle cx="32" cy="32" r="30" fill="url(#grad)"/>
  <path d="M32 16C32 16 20 28 20 38C20 44.627 25.373 50 32 50C38.627 50 44 44.627 44 38C44 28 32 16 32 16Z" fill="white" opacity="0.9"/>
  <path d="M32 24C32 24 26 32 26 37C26 40.314 28.686 43 32 43C35.314 43 38 40.314 38 37C38 32 32 24 32 24Z" fill="url(#grad2)" opacity="0.6"/>
  <defs>
    <linearGradient id="grad" x1="0" y1="0" x2="64" y2="64">
      <stop offset="0%" stop-color="#0077B6"/>
      <stop offset="100%" stop-color="#00B4D8"/>
    </linearGradient>
    <linearGradient id="grad2" x1="26" y1="24" x2="38" y2="43">
      <stop offset="0%" stop-color="#90E0EF"/>
      <stop offset="100%" stop-color="#CAF0F8"/>
    </linearGradient>
  </defs>
</svg>
